<?xml version="1.0" encoding="utf-8"?>
<svg version="1.1" id="Layer_1" xmlns="http://www.w3.org/2000/svg" xmlns:xlink="http://www.w3.org/1999/xlink" x="0px" y="0px" viewBox="0 0 500 500" style="enable-background:new 0 0 500 500;" xml:space="preserve">
    <g id="art">
        <path id="border" d="M250,500C112.2,500,0,387.8,0,250S112.2,0,250,0s250,112.2,250,250S387.8,500,250,500z" style="fill: #11b3ff"/>
        <path id="background" d="M250,50C139.8,50,50,139.8,50,250s89.8,200,200,200s200-89.8,200-200S360.2,50,250,50z" style="fill: #ffffff"/>
        <svg version="1.1" id="homekeylogo" x="146" y="135" width="220" height="220" viewBox="0 0 840 1200" style="enable-background:new 0 0 840 1200;" xml:space="preserve">
            <style type="text/css">.st0{fill:#0F1522;}.st1{fill:#1D2755;}.st2{fill:#2D2F78;}.st3{fill:#33429A;}.st4{fill:#C4C9E5;}.st5{fill:#7A85C1;}.st6{fill:#4554A4;}.st7{fill:#94C7EB;}.st8{fill:#83D1F5;}.st9{fill:#BDDCF3;}.st10{fill:#B3E3F9;}.st11{fill:#58C0EE;}.st12{fill:#43B2E5;}.st13{fill:#71B1E1;}.st14{fill:#488ECB;}.st15{fill:#9E9E9E;}</style>
            <g>
                <polygon class="st0" points="512.56,164.59 765.05,310.36 512.56,456.13 "/>
                <polygon class="st1" points="765.05,601.9 512.56,456.13 765.05,310.36 "/>
                <polygon class="st2" points="512.56,456.13 765.05,601.9 512.56,747.68 "/>
                <polygon class="st3" points="765.05,893.46 512.56,747.68 765.05,601.9 "/>
                <polygon class="st4" points="512.56,747.68 765.05,893.46 512.56,1039.23 "/>
                <polygon class="st5" points="512.56,1039.23 260.08,893.46 512.56,747.68 "/>
                <polygon class="st6" points="260.08,893.46 512.56,1039.23 260.08,1185 "/>
                <polygon class="st7" points="133.21,237.14 386,383.03 7.59,456.12 "/>
                <polygon class="st8" points="260.07,601.9 7.59,456.12 386,383.03 "/>
                <polygon class="st9" points="259.44,18.45 512.24,164.34 133.2,237.14 "/>
                <polygon class="st10" points="385.99,383.03 133.21,237.14 512.23,164.34 "/>
                <polygon class="st11" points="7.59,456.13 260.08,601.9 7.59,747.68 "/>
                <polygon class="st12" points="260.08,893.46 7.59,747.68 260.08,601.9 "/>
                <polygon class="st13" points="7.59,747.68 260.08,893.46 7.59,1039.23 "/>
                <polygon class="st14" points="260.08,1185 7.59,1039.23 260.08,893.46 "/>
            </g>
            <g>
                <path class="st15" d="M786.92,314.81h-7.51v-3.81h19.38v3.81h-7.51v20.7h-4.37V314.81z"/>
                <path class="st15" d="M804.1,311.01h6.82l6.37,17.41h0.11l6.3-17.41h6.85v24.51h-4.33v-19.7h-0.07l-7.44,19.7h-3.05l-7.34-19.7h-0.07v19.7h-4.15V311.01z"/>
            </g>
        </svg>
        <image id="image" x="97" y="97" width="306" height="306" xlink:href="" preserveAspectRatio="xMidYMid slice"/>
        <path id="mask" d="M250,9C116.9,9,9,116.9,9,250s107.9,241,241,241s241-107.9,241-241S383.1,9,250,9z M250,406.5c-86.4,0-156.5-70.1-156.5-156.5S163.6,93.5,250,93.5S406.5,163.6,406.5,250S336.4,406.5,250,406.5z" style="fill: #ffffff"/>
        <path id="overlay" d="M250,89c-88.9,0-161,72.1-161,161s72.1,161,161,161s161-72.1,161-161S338.9,89,250,89z M250,402c-83.9,0-152-68.1-152-152S166.1,98,250,98s152,68.1,152,152S333.9,402,250,402z" style="fill: #11b3ff"/>
    </g>
    <g id="data">
        <path d="M222.634293,37.756935 A214.000009,213.999996 0 0,0 195.717926,42.998898" style="fill: none; stroke: #3f83c4; stroke-width: 16.00; stroke-linecap: round; stroke-linejoin: round;"/>
        <path d="M195.717926,42.998898 A213.999996,214.000000 0 0,0 169.692856,51.639812" style="fill: none; stroke: #3f83c4; stroke-width: 16.00; stroke-linecap: round; stroke-linejoin: round;"/>
        <path d="M169.692856,51.639812 A214.000000,213.999998 0 0,0 144.986450,63.537796" style="fill: none; stroke: #3f83c4; stroke-width: 16.00; stroke-linecap: round; stroke-linejoin: round;"/>
        <path d="M144.986450,63.537796 A213.999998,214.000001 0 0,0 122.004349,78.497482" style="fill: none; stroke: #3f83c4; stroke-width: 16.00; stroke-linecap: round; stroke-linejoin: round;"/>
        <path d="M122.004349,78.497482 A214.000001,214.000002 0 0,0 101.123932,96.273239" style="fill: none; stroke: #3f83c4; stroke-width: 16.00; stroke-linecap: round; stroke-linejoin: round;"/>
        <path d="M101.123932,96.273239 A214.000002,213.999999 0 0,0 82.688065,116.573181" style="fill: none; stroke: #3f83c4; stroke-width: 16.00; stroke-linecap: round; stroke-linejoin: round;"/>
        <line x1="82.688065" y1="116.57318" x2="82.698067" y2="116.58318" style="fill: none; stroke: #3f83c4; stroke-width: 16.00; stroke-linecap: round; stroke-linejoin: round;"/>
        <line x1="49.167755" y1="323.90811" x2="49.177753" y2="323.91812" style="fill: none; stroke: #11b3ff; stroke-width: 16.00; stroke-linecap: round; stroke-linejoin: round;"/>
        <path d="M74.483139,372.432983 A214.000009,214.000013 0 0,0 91.580513,393.872406" style="fill: none; stroke: #11b3ff; stroke-width: 16.00; stroke-linecap: round; stroke-linejoin: round;"/>
        <path d="M91.580513,393.872406 A214.000013,214.000004 0 0,0 111.279121,412.949432" style="fill: none; stroke: #11b3ff; stroke-width: 16.00; stroke-linecap: round; stroke-linejoin: round;"/>
        <path d="M111.279121,412.949432 A214.000004,214.000009 0 0,0 133.255524,429.350861" style="fill: none; stroke: #11b3ff; stroke-width: 16.00; stroke-linecap: round; stroke-linejoin: round;"/>
        <line x1="133.25552" y1="429.35086" x2="133.26552" y2="429.36087" style="fill: none; stroke: #11b3ff; stroke-width: 16.00; stroke-linecap: round; stroke-linejoin: round;"/>
        <line x1="182.56683" y1="453.09793" x2="182.57683" y2="453.10794" style="fill: none; stroke: #3f83c4; stroke-width: 16.00; stroke-linecap: round; stroke-linejoin: round;"/>
        <path d="M236.288971,463.560303 A213.999989,213.999991 0 0,0 263.711060,463.560303" style="fill: none; stroke: #3f83c4; stroke-width: 16.00; stroke-linecap: round; stroke-linejoin: round;"/>
        <path d="M263.711060,463.560303 A213.999991,213.999987 0 0,0 290.907928,460.053650" style="fill: none; stroke: #3f83c4; stroke-width: 16.00; stroke-linecap: round; stroke-linejoin: round;"/>
        <line x1="290.90793" y1="460.05365" x2="290.91794" y2="460.06366" style="fill: none; stroke: #3f83c4; stroke-width: 16.00; stroke-linecap: round; stroke-linejoin: round;"/>
        <path d="M366.744446,429.350861 A213.999993,213.999984 0 0,0 388.720856,412.949432" style="fill: none; stroke: #3f83c4; stroke-width: 16.00; stroke-linecap: round; stroke-linejoin: round;"/>
        <line x1="388.72086" y1="412.94943" x2="388.73087" y2="412.95944" style="fill: none; stroke: #3f83c4; stroke-width: 16.00; stroke-linecap: round; stroke-linejoin: round;"/>
        <line x1="425.51688" y1="372.43298" x2="425.52689" y2="372.44299" style="fill: none; stroke: #3f83c4; stroke-width: 16.00; stroke-linecap: round; stroke-linejoin: round;"/>
        <line x1="450.83224" y1="323.90811" x2="450.84225" y2="323.91812" style="fill: none; stroke: #11b3ff; stroke-width: 16.00; stroke-linecap: round; stroke-linejoin: round;"/>
        <path d="M463.011108,270.548920 A213.999978,213.999995 0 0,0 463.890045,243.140961" style="fill: none; stroke: #78cbf3; stroke-width: 16.00; stroke-linecap: round; stroke-linejoin: round;"/>
        <path d="M463.890045,243.140961 A213.999995,213.999995 0 0,0 461.256897,215.845627" style="fill: none; stroke: #78cbf3; stroke-width: 16.00; stroke-linecap: round; stroke-linejoin: round;"/>
        <path d="M461.256897,215.845627 A213.999995,213.999986 0 0,0 455.154907,189.111099" style="fill: none; stroke: #78cbf3; stroke-width: 16.00; stroke-linecap: round; stroke-linejoin: round;"/>
        <line x1="455.15491" y1="189.1111" x2="455.16492" y2="189.12109" style="fill: none; stroke: #78cbf3; stroke-width: 16.00; stroke-linecap: round; stroke-linejoin: round;"/>
        <line x1="398.87607" y1="96.273239" x2="398.88608" y2="96.283241" style="fill: none; stroke: #78cbf3; stroke-width: 16.00; stroke-linecap: round; stroke-linejoin: round;"/>
        <line x1="330.30713" y1="51.639812" x2="330.31714" y2="51.649811" style="fill: none; stroke: #3f83c4; stroke-width: 16.00; stroke-linecap: round; stroke-linejoin: round;"/>
        <path d="M250.000000,62.000000 A188.000000,187.999998 0 0,0 222.626984,64.003448" style="fill: none; stroke: #3f83c4; stroke-width: 16.00; stroke-linecap: round; stroke-linejoin: round;"/>
        <line x1="222.62698" y1="64.003448" x2="222.63698" y2="64.013451" style="fill: none; stroke: #3f83c4; stroke-width: 16.00; stroke-linecap: round; stroke-linejoin: round;"/>
        <path d="M146.267670,93.208412 A188.000002,188.000006 0 0,0 124.544067,109.982826" style="fill: none; stroke: #78cbf3; stroke-width: 16.00; stroke-linecap: round; stroke-linejoin: round;"/>
        <line x1="124.54407" y1="109.98283" x2="124.55407" y2="109.99283" style="fill: none; stroke: #78cbf3; stroke-width: 16.00; stroke-linecap: round; stroke-linejoin: round;"/>
        <path d="M76.974915,176.472321 A188.000000,187.999995 0 0,0 68.113068,202.448532" style="fill: none; stroke: #78cbf3; stroke-width: 16.00; stroke-linecap: round; stroke-linejoin: round;"/>
        <path d="M68.113068,202.448532 A187.999995,187.999993 0 0,0 63.127819,229.438217" style="fill: none; stroke: #78cbf3; stroke-width: 16.00; stroke-linecap: round; stroke-linejoin: round;"/>
        <path d="M63.127819,229.438217 A187.999993,187.999998 0 0,0 62.125427,256.866150" style="fill: none; stroke: #78cbf3; stroke-width: 16.00; stroke-linecap: round; stroke-linejoin: round;"/>
        <path d="M62.125427,256.866150 A187.999998,187.999996 0 0,0 65.127258,284.147736" style="fill: none; stroke: #78cbf3; stroke-width: 16.00; stroke-linecap: round; stroke-linejoin: round;"/>
        <path d="M65.127258,284.147736 A187.999996,187.999999 0 0,0 72.069321,310.701508" style="fill: none; stroke: #78cbf3; stroke-width: 16.00; stroke-linecap: round; stroke-linejoin: round;"/>
        <path d="M72.069321,310.701508 A187.999999,187.999992 0 0,0 82.803673,335.961548" style="fill: none; stroke: #78cbf3; stroke-width: 16.00; stroke-linecap: round; stroke-linejoin: round;"/>
        <line x1="82.803673" y1="335.96155" x2="82.813675" y2="335.97156" style="fill: none; stroke: #78cbf3; stroke-width: 16.00; stroke-linecap: round; stroke-linejoin: round;"/>
        <line x1="157.98944" y1="413.94528" x2="157.99944" y2="413.95529" style="fill: none; stroke: #78cbf3; stroke-width: 16.00; stroke-linecap: round; stroke-linejoin: round;"/>
        <line x1="209.12312" y1="433.50226" x2="209.13312" y2="433.51227" style="fill: none; stroke: #3f83c4; stroke-width: 16.00; stroke-linecap: round; stroke-linejoin: round;"/>
        <path d="M263.723083,437.498474 A188.000002,187.999998 0 0,0 290.876892,433.502258" style="fill: none; stroke: #3f83c4; stroke-width: 16.00; stroke-linecap: round; stroke-linejoin: round;"/>
        <line x1="290.87689" y1="433.50226" x2="290.8869" y2="433.51227" style="fill: none; stroke: #3f83c4; stroke-width: 16.00; stroke-linecap: round; stroke-linejoin: round;"/>
        <line x1="364.90067" y1="398.80133" x2="364.91068" y2="398.81134" style="fill: none; stroke: #78cbf3; stroke-width: 16.00; stroke-linecap: round; stroke-linejoin: round;"/>
        <line x1="402.89847" y1="359.38947" x2="402.90848" y2="359.39948" style="fill: none; stroke: #78cbf3; stroke-width: 16.00; stroke-linecap: round; stroke-linejoin: round;"/>
        <line x1="427.93066" y1="310.70151" x2="427.94067" y2="310.71152" style="fill: none; stroke: #3f83c4; stroke-width: 16.00; stroke-linecap: round; stroke-linejoin: round;"/>
        <path d="M437.874573,256.866150 A187.999998,188.000009 0 0,0 436.872192,229.438217" style="fill: none; stroke: #3f83c4; stroke-width: 16.00; stroke-linecap: round; stroke-linejoin: round;"/>
        <line x1="436.87219" y1="229.43822" x2="436.8822" y2="229.44821" style="fill: none; stroke: #3f83c4; stroke-width: 16.00; stroke-linecap: round; stroke-linejoin: round;"/>
        <line x1="329.79785" y1="79.775734" x2="329.80786" y2="79.785736" style="fill: none; stroke: #3f83c4; stroke-width: 16.00; stroke-linecap: round; stroke-linejoin: round;"/>
    </g>
</svg>

