<?xml version="1.0" encoding="UTF-8"?>
<svg width="25px" height="37px" viewBox="0 0 25 37" version="1.1" xmlns="http://www.w3.org/2000/svg" xmlns:xlink="http://www.w3.org/1999/xlink">
    <!-- Generator: sketchtool 51.3 (57544) - http://www.bohemiancoding.com/sketch -->
    <title>5A7C9517-4412-479C-A066-AE6137DF0055</title>
    <desc>Created with sketchtool.</desc>
    <defs></defs>
    <g id="HomeKey--KeyCode-Mobile-MVP" stroke="none" stroke-width="1" fill="none" fill-rule="evenodd">
        <g id="HomeKey-KeyCodeMgmt-Mobile-Home" transform="translate(-175.000000, -43.000000)">
            <g id="Group" transform="translate(0.000000, 33.000000)">
                <g id="logo-homekey-icon" transform="translate(174.900000, 10.000000)">
                    <polygon id="Fill-1" fill="#0F1522" points="16.3277542 4.66442352 24.1903342 9.20381332 16.3277542 13.7428234"></polygon>
                    <polygon id="Fill-2" fill="#1D2755" points="24.1901444 18.2823271 16.3275643 13.7429373 24.1901444 9.20354753"></polygon>
                    <polygon id="Fill-3" fill="#2D2F78" points="16.3277542 13.7428994 24.1903342 18.2822892 16.3277542 22.821679"></polygon>
                    <polygon id="Fill-4" fill="#33429A" points="24.1901444 27.3611447 16.3275643 22.8213752 24.1901444 18.2823651"></polygon>
                    <polygon id="Fill-5" fill="#C4C9E5" points="16.3277542 22.8217169 24.1903342 27.3611067 16.3277542 31.9001168"></polygon>
                    <polygon id="Fill-6" fill="#7A85C1" points="16.3277542 31.9001928 8.46517409 27.3611827 16.3277542 22.8217929"></polygon>
                    <polygon id="Fill-7" fill="#4554A4" points="8.46532598 27.3611447 16.327906 31.9001548 8.46532598 36.4395446"></polygon>
                    <polygon id="Fill-8" fill="#94C7EB" points="4.51493671 6.92356258 12.3866297 11.4667494 0.603201559 13.7427095"></polygon>
                    <polygon id="Fill-9" fill="#83D1F5" points="8.46513612 18.2821373 0.602935765 13.7427475 12.3867436 11.4667874"></polygon>
                    <polygon id="Fill-10" fill="#BDDCF3" points="8.44569516 0.11352861 16.3173882 4.65671548 4.51459498 6.92356258"></polygon>
                    <polygon id="Fill-11" fill="#B3E3F9" points="12.3864399 11.4665216 4.51512657 6.92371446 16.3175401 4.65686736"></polygon>
                    <polygon id="Fill-12" fill="#58C0EE" points="0.603125618 13.7428994 8.46532598 18.2822892 0.603125618 22.821679"></polygon>
                    <polygon id="Fill-13" fill="#43B2E5" points="8.46532598 27.3611447 0.603125618 22.8213752 8.46532598 18.2823651"></polygon>
                    <polygon id="Fill-14" fill="#71B1E1" points="0.603125618 22.8217169 8.46532598 27.3611067 0.603125618 31.9001168"></polygon>
                    <polygon id="Fill-15" fill="#488ECB" points="8.46532598 36.4396206 0.603125618 31.9002308 8.46532598 27.3612207"></polygon>
                </g>
            </g>
        </g>
    </g>
</svg>